<svg viewBox="0 0 350 44" fill="none" xmlns="http://www.w3.org/2000/svg">
<path d="M12.56 44V43.3899H9.14C7.64 43.3899 6.7 43.25 6.33 42.9599C5.96 42.68 5.78 42.25 5.78 41.68C5.78 41.1899 5.9 40.54 6.15 39.7299C6.39 38.9199 6.65 38.12 6.91 37.35C7.17 36.58 7.37 36.0099 7.49 35.6399L10.05 28.2H27.37L29.93 35.6399C30.05 36.0099 30.25 36.58 30.54 37.35C30.82 38.12 31.08 38.9199 31.3 39.7299C31.52 40.54 31.64 41.1899 31.64 41.68C31.64 42.25 31.47 42.68 31.12 42.9599C30.77 43.25 29.83 43.3899 28.28 43.3899H25.96V44H38.46V43.3899H37.36C36.43 43.3899 35.73 43.3299 35.29 43.2099C34.84 43.09 34.5 42.82 34.25 42.42C34.01 42.01 33.72 41.36 33.4 40.47L19.58 0.449951H18.91L5.12 40.4599C4.84 41.3499 4.56 42 4.3 42.41C4.04 42.82 3.68 43.08 3.23 43.2C2.78 43.32 2.09 43.38 1.16 43.38H0V43.99H12.56V44ZM15.37 12.59C15.57 12.06 15.83 11.33 16.13 10.39C16.43 9.44995 16.76 8.47995 17.11 7.45995C17.46 6.43995 17.78 5.48995 18.09 4.58995C18.39 3.69995 18.61 3.02995 18.73 2.57995C19.01 3.38995 19.36 4.42995 19.77 5.68995C20.18 6.94995 20.6 8.23995 21.05 9.55995C21.5 10.88 21.9 12.09 22.27 13.19L27.21 27.58H10.31L15.37 12.58V12.59ZM64.04 44V43.3899H61.11C60.09 43.3899 59.34 43.27 58.85 43.02C58.36 42.7799 58.05 42.28 57.91 41.53C57.77 40.78 57.7 39.61 57.7 38.02V22.16L67.09 3.61995C67.5 2.80995 67.86 2.22995 68.19 1.87995C68.51 1.52995 68.93 1.30995 69.44 1.20995C69.95 1.10995 70.63 1.05995 71.48 1.05995H73.13V0.449951H62.21V1.05995H64.59C65.65 1.05995 66.3 1.14995 66.54 1.32995C66.78 1.50995 66.91 1.72995 66.91 1.96995C66.91 2.32995 66.78 2.76995 66.51 3.27995C66.25 3.78995 65.95 4.38995 65.63 5.07995L59.71 16.73C59.06 17.99 58.59 18.92 58.31 19.51C58.03 20.1 57.68 20.8 57.27 21.61C56.9 20.96 56.51 20.28 56.08 19.57C55.65 18.86 55.23 18.15 54.8 17.43C54.37 16.72 53.95 16.02 53.52 15.33C53.09 14.64 52.68 13.97 52.27 13.32L47.09 5.02995C46.68 4.37995 46.35 3.81995 46.08 3.34995C45.81 2.87995 45.68 2.46995 45.68 2.09995C45.68 1.77995 45.81 1.51995 46.08 1.33995C46.34 1.15995 46.98 1.06995 48 1.06995H50.01V0.459951H39.22V1.06995H39.77C40.66 1.06995 41.33 1.11995 41.78 1.21995C42.23 1.31995 42.62 1.55995 42.97 1.91995C43.32 2.28995 43.73 2.87995 44.22 3.68995L55.99 22.41V38.02C55.99 39.61 55.92 40.78 55.78 41.53C55.64 42.28 55.32 42.7799 54.84 43.02C54.35 43.26 53.6 43.3899 52.58 43.3899H49.59V44H64.04ZM95.81 44V43.3899H91.54C90.52 43.3899 89.77 43.27 89.28 43.02C88.79 42.7799 88.48 42.28 88.33 41.53C88.19 40.78 88.12 39.61 88.12 38.02V1.05995H102.51C103.52 1.05995 104.31 1.13995 104.86 1.29995C105.41 1.45995 105.79 1.82995 106.02 2.39995C106.24 2.96995 106.38 3.90995 106.42 5.20995L106.66 10.39H107.27L106.9 0.449951H80.37V1.05995H82.99C84.01 1.05995 84.76 1.17995 85.25 1.42995C85.74 1.66995 86.05 2.17995 86.19 2.94995C86.33 3.71995 86.4 4.89995 86.4 6.48995V38.02C86.4 39.61 86.33 40.78 86.19 41.53C86.05 42.28 85.72 42.7799 85.21 43.02C84.7 43.26 83.9 43.3899 82.8 43.3899H80.36V44H95.81ZM176.19 44V43.3899H173.26C172.24 43.3899 171.49 43.27 171 43.02C170.51 42.7799 170.2 42.28 170.05 41.53C169.91 40.78 169.84 39.61 169.84 38.02V22.16L179.23 3.61995C179.64 2.80995 180 2.22995 180.33 1.87995C180.66 1.52995 181.07 1.30995 181.58 1.20995C182.09 1.10995 182.77 1.05995 183.62 1.05995H185.27V0.449951H174.35V1.05995H176.73C177.79 1.05995 178.44 1.14995 178.68 1.32995C178.92 1.50995 179.05 1.72995 179.05 1.96995C179.05 2.32995 178.92 2.76995 178.65 3.27995C178.39 3.78995 178.09 4.38995 177.76 5.07995L171.84 16.73C171.19 17.99 170.72 18.92 170.44 19.51C170.15 20.1 169.81 20.8 169.4 21.61C169.03 20.96 168.64 20.28 168.21 19.57C167.78 18.86 167.36 18.15 166.93 17.43C166.5 16.72 166.08 16.02 165.65 15.33C165.22 14.64 164.81 13.97 164.4 13.32L159.22 5.02995C158.81 4.37995 158.48 3.81995 158.21 3.34995C157.94 2.87995 157.81 2.46995 157.81 2.09995C157.81 1.77995 157.94 1.51995 158.21 1.33995C158.47 1.15995 159.11 1.06995 160.13 1.06995H162.14V0.459951H151.35V1.06995H151.9C152.79 1.06995 153.47 1.11995 153.91 1.21995C154.36 1.31995 154.75 1.55995 155.1 1.91995C155.44 2.28995 155.86 2.87995 156.35 3.68995L168.12 22.41V38.02C168.12 39.61 168.05 40.78 167.91 41.53C167.77 42.28 167.45 42.7799 166.96 43.02C166.47 43.26 165.72 43.3899 164.7 43.3899H161.71V44H176.19ZM222.85 44L223.28 34.06H222.67L222.36 39.3699C222.32 40.02 222.22 40.5799 222.06 41.0499C221.9 41.52 221.59 41.8699 221.14 42.1199C220.69 42.36 220.02 42.49 219.13 42.49H192.23L209.8 22.12V21.51L194.06 1.05995H218.03C219.17 1.05995 219.98 1.17995 220.47 1.42995C220.96 1.66995 221.27 2.07995 221.41 2.64995C221.55 3.21995 221.64 3.96995 221.68 4.90995L221.99 10.4H222.6L222.17 0.459951H191.98V1.06995L208.51 22.6L191.13 42.79V44.01H222.84L222.85 44ZM254.81 44V43.3899H250.91C249.89 43.3899 249.14 43.27 248.65 43.02C248.16 42.7799 247.85 42.28 247.7 41.53C247.56 40.78 247.49 39.61 247.49 38.02V1.36995H257.37C258.43 1.36995 259.21 1.48995 259.72 1.73995C260.23 1.97995 260.57 2.39995 260.76 2.98995C260.94 3.57995 261.06 4.43995 261.1 5.57995L261.28 9.66995H261.89L261.52 0.459951H231.94L231.57 9.66995H232.18L232.36 5.57995C232.4 4.43995 232.51 3.57995 232.7 2.98995C232.88 2.39995 233.23 1.97995 233.74 1.73995C234.25 1.49995 235.03 1.36995 236.09 1.36995H245.79V38.02C245.79 39.61 245.72 40.78 245.58 41.53C245.44 42.28 245.12 42.7799 244.64 43.02C244.15 43.26 243.4 43.3899 242.38 43.3899H238.42V44H254.83H254.81ZM349.03 44L349.46 34.06H348.85L348.55 39.3699C348.51 40.02 348.41 40.5799 348.24 41.0499C348.08 41.52 347.77 41.8699 347.32 42.1199C346.87 42.36 346.2 42.49 345.31 42.49H318.41L335.98 22.12V21.51L320.24 1.07995H344.21C345.35 1.07995 346.16 1.19995 346.65 1.44995C347.14 1.68995 347.45 2.09995 347.6 2.66995C347.74 3.23995 347.83 3.98995 347.87 4.92995L348.17 10.42H348.78L348.35 0.479951H318.16V1.08995L334.69 22.62L317.31 42.81V44.03H349.02L349.03 44Z" fill="#231F20"/>
<path d="M107.04 43.9999C107.11 37.1699 107.91 31.3099 109.47 26.43C111.1 21.32 113.55 17.42 116.84 14.73C120.12 12.04 124.22 10.69 129.13 10.69C134.35 10.69 138.58 12.1 141.81 14.92C145.04 17.74 147.41 21.71 148.91 26.85C150.35 31.77 151.09 37.4999 151.15 44.0099H148.97C148.93 39.0999 148.57 34.67 147.86 30.76C147.11 26.61 145.93 23.13 144.33 20.31C142.73 17.49 140.67 15.34 138.16 13.85C135.65 12.36 132.64 11.62 129.12 11.62C125.81 11.62 122.92 12.35 120.43 13.8C117.95 15.26 115.87 17.39 114.19 20.21C112.51 23.03 111.25 26.51 110.43 30.66C109.65 34.58 109.25 39.0399 109.21 44.0099H107.03L107.04 43.9999Z" fill="#231F20"/>
<path d="M265.08 43.9999C265.15 37.1699 265.95 31.3099 267.51 26.43C269.14 21.32 271.59 17.42 274.88 14.73C278.16 12.04 282.26 10.69 287.17 10.69C292.39 10.69 296.62 12.1 299.85 14.92C303.08 17.74 305.45 21.71 306.95 26.85C308.39 31.77 309.13 37.4999 309.19 44.0099H307.01C306.97 39.0999 306.61 34.67 305.9 30.76C305.15 26.61 303.97 23.13 302.37 20.31C300.77 17.49 298.71 15.34 296.2 13.85C293.69 12.36 290.68 11.62 287.16 11.62C283.85 11.62 280.96 12.35 278.47 13.8C275.99 15.26 273.91 17.39 272.23 20.21C270.55 23.03 269.3 26.51 268.47 30.66C267.69 34.58 267.29 39.0399 267.25 44.0099H265.07L265.08 43.9999Z" fill="#231F20"/>
</svg>
